{
    "asset" : {
        "generator" : "Khronos glTF Blender I/O v1.2.75",
        "version" : "2.0"
    },
    "scene" : 0,
    "scenes" : [
        {
            "name" : "Scene",
            "nodes" : [
                0
            ]
        }
    ],
    "nodes" : [
        {
            "mesh" : 0,
            "name" : "Sphere"
        }
    ],
    "materials" : [
        {
            "doubleSided" : true,
            "emissiveFactor" : [
                0,
                0,
                0
            ],
            "name" : "Material",
            "pbrMetallicRoughness" : {
                "baseColorTexture" : {
                    "index" : 0,
                    "texCoord" : 0
                },
                "metallicFactor" : 0,
                "roughnessFactor" : 0.5
            }
        }
    ],
    "meshes" : [
        {
            "name" : "Sphere",
            "primitives" : [
                {
                    "attributes" : {
                        "POSITION" : 0,
                        "NORMAL" : 1,
                        "TEXCOORD_0" : 2
                    },
                    "indices" : 3,
                    "material" : 0
                }
            ]
        }
    ],
    "textures" : [
        {
            "source" : 0
        }
    ],
    "images" : [
        {
            "bufferView" : 4,
            "mimeType" : "image/png",
            "name" : "castletexture"
        }
    ],
    "accessors" : [
        {
            "bufferView" : 0,
            "componentType" : 5126,
            "count" : 270,
            "max" : [
                0.21928375959396362,
                0.09636382013559341,
                0.21928413212299347
            ],
            "min" : [
                -0.21928375959396362,
                -0.0014929622411727905,
                -0.21928338706493378
            ],
            "type" : "VEC3"
        },
        {
            "bufferView" : 1,
            "componentType" : 5126,
            "count" : 270,
            "type" : "VEC3"
        },
        {
            "bufferView" : 2,
            "componentType" : 5126,
            "count" : 270,
            "type" : "VEC2"
        },
        {
            "bufferView" : 3,
            "componentType" : 5123,
            "count" : 384,
            "type" : "SCALAR"
        }
    ],
    "bufferViews" : [
        {
            "buffer" : 0,
            "byteLength" : 3240,
            "byteOffset" : 0
        },
        {
            "buffer" : 0,
            "byteLength" : 3240,
            "byteOffset" : 3240
        },
        {
            "buffer" : 0,
            "byteLength" : 2160,
            "byteOffset" : 6480
        },
        {
            "buffer" : 0,
            "byteLength" : 768,
            "byteOffset" : 8640
        },
        {
            "buffer" : 0,
            "byteLength" : 4651,
            "byteOffset" : 9408
        }
    ],
    "buffers" : [
        {
            "byteLength" : 14060,
            "uri" : "data:application/octet-stream;base64,"
        }
    ]
}
