{
    "asset" : {
        "generator" : "Khronos glTF Blender I/O v1.2.75",
        "version" : "2.0"
    },
    "scene" : 0,
    "scenes" : [
        {
            "name" : "Scene",
            "nodes" : [
                0
            ]
        }
    ],
    "nodes" : [
        {
            "mesh" : 0,
            "name" : "Cube"
        }
    ],
    "materials" : [
        {
            "emissiveFactor" : [
                0,
                0,
                0
            ],
            "name" : "Material.001",
            "pbrMetallicRoughness" : {
                "baseColorTexture" : {
                    "index" : 0,
                    "texCoord" : 0
                },
                "metallicFactor" : 0,
                "roughnessFactor" : 0.5
            }
        }
    ],
    "meshes" : [
        {
            "name" : "Cube.001",
            "primitives" : [
                {
                    "attributes" : {
                        "POSITION" : 0,
                        "NORMAL" : 1,
                        "TEXCOORD_0" : 2
                    },
                    "indices" : 3,
                    "material" : 0
                }
            ]
        }
    ],
    "textures" : [
        {
            "source" : 0
        }
    ],
    "images" : [
        {
            "bufferView" : 4,
            "mimeType" : "image/png",
            "name" : "castletexture"
        }
    ],
    "accessors" : [
        {
            "bufferView" : 0,
            "componentType" : 5126,
            "count" : 198,
            "max" : [
                0.17550623416900635,
                0.6348214149475098,
                0.1725057065486908
            ],
            "min" : [
                -0.17345666885375977,
                -0.01618880033493042,
                -0.17600734531879425
            ],
            "type" : "VEC3"
        },
        {
            "bufferView" : 1,
            "componentType" : 5126,
            "count" : 198,
            "type" : "VEC3"
        },
        {
            "bufferView" : 2,
            "componentType" : 5126,
            "count" : 198,
            "type" : "VEC2"
        },
        {
            "bufferView" : 3,
            "componentType" : 5123,
            "count" : 336,
            "type" : "SCALAR"
        }
    ],
    "bufferViews" : [
        {
            "buffer" : 0,
            "byteLength" : 2376,
            "byteOffset" : 0
        },
        {
            "buffer" : 0,
            "byteLength" : 2376,
            "byteOffset" : 2376
        },
        {
            "buffer" : 0,
            "byteLength" : 1584,
            "byteOffset" : 4752
        },
        {
            "buffer" : 0,
            "byteLength" : 672,
            "byteOffset" : 6336
        },
        {
            "buffer" : 0,
            "byteLength" : 4651,
            "byteOffset" : 7008
        }
    ],
    "buffers" : [
        {
            "byteLength" : 11660,
            "uri" : "data:application/octet-stream;base64,"
        }
    ]
}
