{
    "asset" : {
        "generator" : "Khronos glTF Blender I/O v1.2.75",
        "version" : "2.0"
    },
    "scene" : 0,
    "scenes" : [
        {
            "name" : "Scene",
            "nodes" : [
                0
            ]
        }
    ],
    "nodes" : [
        {
            "mesh" : 0,
            "name" : "Cylinder.002"
        }
    ],
    "materials" : [
        {
            "emissiveFactor" : [
                0,
                0,
                0
            ],
            "name" : "Material",
            "pbrMetallicRoughness" : {
                "baseColorTexture" : {
                    "index" : 0,
                    "texCoord" : 0
                },
                "metallicFactor" : 1,
                "roughnessFactor" : 0.5
            }
        }
    ],
    "meshes" : [
        {
            "name" : "Cylinder.006",
            "primitives" : [
                {
                    "attributes" : {
                        "POSITION" : 0,
                        "NORMAL" : 1,
                        "TEXCOORD_0" : 2
                    },
                    "indices" : 3,
                    "material" : 0
                }
            ]
        }
    ],
    "textures" : [
        {
            "source" : 0
        }
    ],
    "images" : [
        {
            "bufferView" : 4,
            "mimeType" : "image/png",
            "name" : "castletexture"
        }
    ],
    "accessors" : [
        {
            "bufferView" : 0,
            "componentType" : 5126,
            "count" : 1952,
            "max" : [
                0.26497089862823486,
                1.0487511157989502,
                0.2597119212150574
            ],
            "min" : [
                -0.36598244309425354,
                -0.010757267475128174,
                -0.2600225806236267
            ],
            "type" : "VEC3"
        },
        {
            "bufferView" : 1,
            "componentType" : 5126,
            "count" : 1952,
            "type" : "VEC3"
        },
        {
            "bufferView" : 2,
            "componentType" : 5126,
            "count" : 1952,
            "type" : "VEC2"
        },
        {
            "bufferView" : 3,
            "componentType" : 5123,
            "count" : 3492,
            "type" : "SCALAR"
        }
    ],
    "bufferViews" : [
        {
            "buffer" : 0,
            "byteLength" : 23424,
            "byteOffset" : 0
        },
        {
            "buffer" : 0,
            "byteLength" : 23424,
            "byteOffset" : 23424
        },
        {
            "buffer" : 0,
            "byteLength" : 15616,
            "byteOffset" : 46848
        },
        {
            "buffer" : 0,
            "byteLength" : 6984,
            "byteOffset" : 62464
        },
        {
            "buffer" : 0,
            "byteLength" : 4651,
            "byteOffset" : 69448
        }
    ],
    "buffers" : [
        {
            "byteLength" : 74100,
            "uri" : "data:application/octet-stream;base64,"
        }
    ]
}
