{
    "asset" : {
        "generator" : "Khronos glTF Blender I/O v1.2.75",
        "version" : "2.0"
    },
    "scene" : 0,
    "scenes" : [
        {
            "name" : "Scene",
            "nodes" : [
                0
            ]
        }
    ],
    "nodes" : [
        {
            "mesh" : 0,
            "name" : "Cube"
        }
    ],
    "materials" : [
        {
            "doubleSided" : true,
            "emissiveFactor" : [
                0,
                0,
                0
            ],
            "name" : "Material.002",
            "pbrMetallicRoughness" : {
                "baseColorTexture" : {
                    "index" : 0,
                    "texCoord" : 0
                },
                "metallicFactor" : 0,
                "roughnessFactor" : 0.5
            }
        }
    ],
    "meshes" : [
        {
            "name" : "Cube.001",
            "primitives" : [
                {
                    "attributes" : {
                        "POSITION" : 0,
                        "NORMAL" : 1,
                        "TEXCOORD_0" : 2
                    },
                    "indices" : 3,
                    "material" : 0
                }
            ]
        }
    ],
    "textures" : [
        {
            "source" : 0
        }
    ],
    "images" : [
        {
            "bufferView" : 4,
            "mimeType" : "image/png",
            "name" : "castletexture"
        }
    ],
    "accessors" : [
        {
            "bufferView" : 0,
            "componentType" : 5126,
            "count" : 1319,
            "max" : [
                0.6765024065971375,
                0.680119514465332,
                0.2881709039211273
            ],
            "min" : [
                -0.6546450257301331,
                0.0040451399981975555,
                -0.3238585889339447
            ],
            "type" : "VEC3"
        },
        {
            "bufferView" : 1,
            "componentType" : 5126,
            "count" : 1319,
            "type" : "VEC3"
        },
        {
            "bufferView" : 2,
            "componentType" : 5126,
            "count" : 1319,
            "type" : "VEC2"
        },
        {
            "bufferView" : 3,
            "componentType" : 5123,
            "count" : 2148,
            "type" : "SCALAR"
        }
    ],
    "bufferViews" : [
        {
            "buffer" : 0,
            "byteLength" : 15828,
            "byteOffset" : 0
        },
        {
            "buffer" : 0,
            "byteLength" : 15828,
            "byteOffset" : 15828
        },
        {
            "buffer" : 0,
            "byteLength" : 10552,
            "byteOffset" : 31656
        },
        {
            "buffer" : 0,
            "byteLength" : 4296,
            "byteOffset" : 42208
        },
        {
            "buffer" : 0,
            "byteLength" : 4651,
            "byteOffset" : 46504
        }
    ],
    "buffers" : [
        {
            "byteLength" : 51156,
            "uri" : "data:application/octet-stream;base64,"
        }
    ]
}
