{
    "asset" : {
        "generator" : "Khronos glTF Blender I/O v1.2.75",
        "version" : "2.0"
    },
    "scene" : 0,
    "scenes" : [
        {
            "name" : "Scene",
            "nodes" : [
                0
            ]
        }
    ],
    "nodes" : [
        {
            "mesh" : 0,
            "name" : "Cube"
        }
    ],
    "materials" : [
        {
            "emissiveFactor" : [
                0,
                0,
                0
            ],
            "name" : "Material",
            "pbrMetallicRoughness" : {
                "baseColorTexture" : {
                    "index" : 0,
                    "texCoord" : 0
                },
                "metallicFactor" : 0,
                "roughnessFactor" : 0.4000000059604645
            }
        }
    ],
    "meshes" : [
        {
            "name" : "Cube",
            "primitives" : [
                {
                    "attributes" : {
                        "POSITION" : 0,
                        "NORMAL" : 1,
                        "TEXCOORD_0" : 2
                    },
                    "indices" : 3,
                    "material" : 0
                }
            ]
        }
    ],
    "textures" : [
        {
            "source" : 0
        }
    ],
    "images" : [
        {
            "bufferView" : 4,
            "mimeType" : "image/png",
            "name" : "castletexture"
        }
    ],
    "accessors" : [
        {
            "bufferView" : 0,
            "componentType" : 5126,
            "count" : 2147,
            "max" : [
                0.35824504494667053,
                1.981189250946045,
                1.0363646745681763
            ],
            "min" : [
                -0.36736923456192017,
                -0.01881067454814911,
                -1.0363646745681763
            ],
            "type" : "VEC3"
        },
        {
            "bufferView" : 1,
            "componentType" : 5126,
            "count" : 2147,
            "type" : "VEC3"
        },
        {
            "bufferView" : 2,
            "componentType" : 5126,
            "count" : 2147,
            "type" : "VEC2"
        },
        {
            "bufferView" : 3,
            "componentType" : 5123,
            "count" : 4638,
            "type" : "SCALAR"
        }
    ],
    "bufferViews" : [
        {
            "buffer" : 0,
            "byteLength" : 25764,
            "byteOffset" : 0
        },
        {
            "buffer" : 0,
            "byteLength" : 25764,
            "byteOffset" : 25764
        },
        {
            "buffer" : 0,
            "byteLength" : 17176,
            "byteOffset" : 51528
        },
        {
            "buffer" : 0,
            "byteLength" : 9276,
            "byteOffset" : 68704
        },
        {
            "buffer" : 0,
            "byteLength" : 4651,
            "byteOffset" : 77980
        }
    ],
    "buffers" : [
        {
            "byteLength" : 82632,
            "uri" : "data:application/octet-stream;base64,"
        }
    ]
}
