{
    "asset" : {
        "generator" : "Khronos glTF Blender I/O v1.2.75",
        "version" : "2.0"
    },
    "scene" : 0,
    "scenes" : [
        {
            "name" : "Scene",
            "nodes" : [
                0
            ]
        }
    ],
    "nodes" : [
        {
            "mesh" : 0,
            "name" : "Cube"
        }
    ],
    "materials" : [
        {
            "emissiveFactor" : [
                0,
                0,
                0
            ],
            "name" : "Material.001",
            "pbrMetallicRoughness" : {
                "baseColorTexture" : {
                    "index" : 0,
                    "texCoord" : 0
                },
                "metallicFactor" : 0,
                "roughnessFactor" : 0.5
            }
        }
    ],
    "meshes" : [
        {
            "name" : "Cube.002",
            "primitives" : [
                {
                    "attributes" : {
                        "POSITION" : 0,
                        "NORMAL" : 1,
                        "TEXCOORD_0" : 2
                    },
                    "indices" : 3,
                    "material" : 0
                }
            ]
        }
    ],
    "textures" : [
        {
            "source" : 0
        }
    ],
    "images" : [
        {
            "bufferView" : 4,
            "mimeType" : "image/png",
            "name" : "castletexture"
        }
    ],
    "accessors" : [
        {
            "bufferView" : 0,
            "componentType" : 5126,
            "count" : 1270,
            "max" : [
                0.23609016835689545,
                2.4544925689697266,
                0.3448951840400696
            ],
            "min" : [
                -0.2815549671649933,
                -0.024106502532958984,
                -0.34489521384239197
            ],
            "type" : "VEC3"
        },
        {
            "bufferView" : 1,
            "componentType" : 5126,
            "count" : 1270,
            "type" : "VEC3"
        },
        {
            "bufferView" : 2,
            "componentType" : 5126,
            "count" : 1270,
            "type" : "VEC2"
        },
        {
            "bufferView" : 3,
            "componentType" : 5123,
            "count" : 2370,
            "type" : "SCALAR"
        }
    ],
    "bufferViews" : [
        {
            "buffer" : 0,
            "byteLength" : 15240,
            "byteOffset" : 0
        },
        {
            "buffer" : 0,
            "byteLength" : 15240,
            "byteOffset" : 15240
        },
        {
            "buffer" : 0,
            "byteLength" : 10160,
            "byteOffset" : 30480
        },
        {
            "buffer" : 0,
            "byteLength" : 4740,
            "byteOffset" : 40640
        },
        {
            "buffer" : 0,
            "byteLength" : 4651,
            "byteOffset" : 45380
        }
    ],
    "buffers" : [
        {
            "byteLength" : 50032,
            "uri" : "data:application/octet-stream;base64,"
        }
    ]
}
