{
    "asset" : {
        "generator" : "Khronos glTF Blender I/O v1.2.75",
        "version" : "2.0"
    },
    "scene" : 0,
    "scenes" : [
        {
            "name" : "Scene",
            "nodes" : [
                0
            ]
        }
    ],
    "nodes" : [
        {
            "mesh" : 0,
            "name" : "Cube.001"
        }
    ],
    "materials" : [
        {
            "emissiveFactor" : [
                0,
                0,
                0
            ],
            "name" : "Material.004",
            "pbrMetallicRoughness" : {
                "baseColorTexture" : {
                    "index" : 0,
                    "texCoord" : 0
                },
                "metallicFactor" : 0,
                "roughnessFactor" : 0.5
            }
        }
    ],
    "meshes" : [
        {
            "name" : "Cube",
            "primitives" : [
                {
                    "attributes" : {
                        "POSITION" : 0,
                        "NORMAL" : 1,
                        "TEXCOORD_0" : 2
                    },
                    "indices" : 3,
                    "material" : 0
                }
            ]
        }
    ],
    "textures" : [
        {
            "source" : 0
        }
    ],
    "images" : [
        {
            "bufferView" : 4,
            "mimeType" : "image/png",
            "name" : "castletexture"
        }
    ],
    "accessors" : [
        {
            "bufferView" : 0,
            "componentType" : 5126,
            "count" : 837,
            "max" : [
                1.0449824333190918,
                0.8408776521682739,
                0.41417622566223145
            ],
            "min" : [
                -1.0504655838012695,
                0.000529944896697998,
                -0.46950507164001465
            ],
            "type" : "VEC3"
        },
        {
            "bufferView" : 1,
            "componentType" : 5126,
            "count" : 837,
            "type" : "VEC3"
        },
        {
            "bufferView" : 2,
            "componentType" : 5126,
            "count" : 837,
            "type" : "VEC2"
        },
        {
            "bufferView" : 3,
            "componentType" : 5123,
            "count" : 1341,
            "type" : "SCALAR"
        }
    ],
    "bufferViews" : [
        {
            "buffer" : 0,
            "byteLength" : 10044,
            "byteOffset" : 0
        },
        {
            "buffer" : 0,
            "byteLength" : 10044,
            "byteOffset" : 10044
        },
        {
            "buffer" : 0,
            "byteLength" : 6696,
            "byteOffset" : 20088
        },
        {
            "buffer" : 0,
            "byteLength" : 2682,
            "byteOffset" : 26784
        },
        {
            "buffer" : 0,
            "byteLength" : 4651,
            "byteOffset" : 29468
        }
    ],
    "buffers" : [
        {
            "byteLength" : 34120,
            "uri" : "data:application/octet-stream;base64,"
        }
    ]
}
