{
    "asset" : {
        "generator" : "Khronos glTF Blender I/O v1.2.75",
        "version" : "2.0"
    },
    "scene" : 0,
    "scenes" : [
        {
            "name" : "Scene",
            "nodes" : [
                0
            ]
        }
    ],
    "nodes" : [
        {
            "mesh" : 0,
            "name" : "Cylinder"
        }
    ],
    "materials" : [
        {
            "emissiveFactor" : [
                0,
                0,
                0
            ],
            "name" : "Material.002",
            "pbrMetallicRoughness" : {
                "baseColorTexture" : {
                    "index" : 0,
                    "texCoord" : 0
                },
                "metallicFactor" : 0,
                "roughnessFactor" : 0.5
            }
        }
    ],
    "meshes" : [
        {
            "name" : "Cylinder.006",
            "primitives" : [
                {
                    "attributes" : {
                        "POSITION" : 0,
                        "NORMAL" : 1,
                        "TEXCOORD_0" : 2
                    },
                    "indices" : 3,
                    "material" : 0
                }
            ]
        }
    ],
    "textures" : [
        {
            "source" : 0
        }
    ],
    "images" : [
        {
            "bufferView" : 4,
            "mimeType" : "image/png",
            "name" : "castletexture"
        }
    ],
    "accessors" : [
        {
            "bufferView" : 0,
            "componentType" : 5126,
            "count" : 536,
            "max" : [
                0.3343876600265503,
                0.6182718276977539,
                0.3343876600265503
            ],
            "min" : [
                -0.3343876600265503,
                -0.0034464001655578613,
                -0.3343876600265503
            ],
            "type" : "VEC3"
        },
        {
            "bufferView" : 1,
            "componentType" : 5126,
            "count" : 536,
            "type" : "VEC3"
        },
        {
            "bufferView" : 2,
            "componentType" : 5126,
            "count" : 536,
            "type" : "VEC2"
        },
        {
            "bufferView" : 3,
            "componentType" : 5123,
            "count" : 984,
            "type" : "SCALAR"
        }
    ],
    "bufferViews" : [
        {
            "buffer" : 0,
            "byteLength" : 6432,
            "byteOffset" : 0
        },
        {
            "buffer" : 0,
            "byteLength" : 6432,
            "byteOffset" : 6432
        },
        {
            "buffer" : 0,
            "byteLength" : 4288,
            "byteOffset" : 12864
        },
        {
            "buffer" : 0,
            "byteLength" : 1968,
            "byteOffset" : 17152
        },
        {
            "buffer" : 0,
            "byteLength" : 4651,
            "byteOffset" : 19120
        }
    ],
    "buffers" : [
        {
            "byteLength" : 23772,
            "uri" : "data:application/octet-stream;base64,"
        }
    ]
}
