{
    "asset" : {
        "generator" : "Khronos glTF Blender I/O v1.2.75",
        "version" : "2.0"
    },
    "scene" : 0,
    "scenes" : [
        {
            "name" : "Scene",
            "nodes" : [
                0
            ]
        }
    ],
    "nodes" : [
        {
            "mesh" : 0,
            "name" : "Cube.001"
        }
    ],
    "materials" : [
        {
            "emissiveFactor" : [
                0,
                0,
                0
            ],
            "name" : "Material.003",
            "pbrMetallicRoughness" : {
                "baseColorTexture" : {
                    "index" : 0,
                    "texCoord" : 0
                },
                "metallicFactor" : 0,
                "roughnessFactor" : 0.5
            }
        }
    ],
    "meshes" : [
        {
            "name" : "Cube.004",
            "primitives" : [
                {
                    "attributes" : {
                        "POSITION" : 0,
                        "NORMAL" : 1,
                        "TEXCOORD_0" : 2
                    },
                    "indices" : 3,
                    "material" : 0
                }
            ]
        }
    ],
    "textures" : [
        {
            "source" : 0
        }
    ],
    "images" : [
        {
            "bufferView" : 4,
            "mimeType" : "image/png",
            "name" : "castletexture"
        }
    ],
    "accessors" : [
        {
            "bufferView" : 0,
            "componentType" : 5126,
            "count" : 294,
            "max" : [
                0.2800597846508026,
                0.7259319424629211,
                0.28201815485954285
            ],
            "min" : [
                -0.2803826630115509,
                -1.7881393432617188e-07,
                -0.27842429280281067
            ],
            "type" : "VEC3"
        },
        {
            "bufferView" : 1,
            "componentType" : 5126,
            "count" : 294,
            "type" : "VEC3"
        },
        {
            "bufferView" : 2,
            "componentType" : 5126,
            "count" : 294,
            "type" : "VEC2"
        },
        {
            "bufferView" : 3,
            "componentType" : 5123,
            "count" : 450,
            "type" : "SCALAR"
        }
    ],
    "bufferViews" : [
        {
            "buffer" : 0,
            "byteLength" : 3528,
            "byteOffset" : 0
        },
        {
            "buffer" : 0,
            "byteLength" : 3528,
            "byteOffset" : 3528
        },
        {
            "buffer" : 0,
            "byteLength" : 2352,
            "byteOffset" : 7056
        },
        {
            "buffer" : 0,
            "byteLength" : 900,
            "byteOffset" : 9408
        },
        {
            "buffer" : 0,
            "byteLength" : 4651,
            "byteOffset" : 10308
        }
    ],
    "buffers" : [
        {
            "byteLength" : 14960,
            "uri" : "data:application/octet-stream;base64,"
        }
    ]
}
