{
    "asset" : {
        "generator" : "Khronos glTF Blender I/O v1.2.75",
        "version" : "2.0"
    },
    "scene" : 0,
    "scenes" : [
        {
            "name" : "Scene",
            "nodes" : [
                0
            ]
        }
    ],
    "nodes" : [
        {
            "mesh" : 0,
            "name" : "Cylinder.001"
        }
    ],
    "materials" : [
        {
            "emissiveFactor" : [
                0,
                0,
                0
            ],
            "name" : "Material.001",
            "pbrMetallicRoughness" : {
                "baseColorTexture" : {
                    "index" : 0,
                    "texCoord" : 0
                },
                "metallicFactor" : 0,
                "roughnessFactor" : 0.5
            }
        }
    ],
    "meshes" : [
        {
            "name" : "Cylinder.005",
            "primitives" : [
                {
                    "attributes" : {
                        "POSITION" : 0,
                        "NORMAL" : 1,
                        "TEXCOORD_0" : 2
                    },
                    "indices" : 3,
                    "material" : 0
                }
            ]
        }
    ],
    "textures" : [
        {
            "source" : 0
        }
    ],
    "images" : [
        {
            "bufferView" : 4,
            "mimeType" : "image/png",
            "name" : "castletexture"
        }
    ],
    "accessors" : [
        {
            "bufferView" : 0,
            "componentType" : 5126,
            "count" : 722,
            "max" : [
                0.24237000942230225,
                0.8158997893333435,
                0.44946256279945374
            ],
            "min" : [
                -0.27627816796302795,
                -0.0043434202671051025,
                -0.4576804041862488
            ],
            "type" : "VEC3"
        },
        {
            "bufferView" : 1,
            "componentType" : 5126,
            "count" : 722,
            "type" : "VEC3"
        },
        {
            "bufferView" : 2,
            "componentType" : 5126,
            "count" : 722,
            "type" : "VEC2"
        },
        {
            "bufferView" : 3,
            "componentType" : 5123,
            "count" : 1443,
            "type" : "SCALAR"
        }
    ],
    "bufferViews" : [
        {
            "buffer" : 0,
            "byteLength" : 8664,
            "byteOffset" : 0
        },
        {
            "buffer" : 0,
            "byteLength" : 8664,
            "byteOffset" : 8664
        },
        {
            "buffer" : 0,
            "byteLength" : 5776,
            "byteOffset" : 17328
        },
        {
            "buffer" : 0,
            "byteLength" : 2886,
            "byteOffset" : 23104
        },
        {
            "buffer" : 0,
            "byteLength" : 4651,
            "byteOffset" : 25992
        }
    ],
    "buffers" : [
        {
            "byteLength" : 30644,
            "uri" : "data:application/octet-stream;base64,"
        }
    ]
}
