{
    "asset" : {
        "generator" : "Khronos glTF Blender I/O v1.2.75",
        "version" : "2.0"
    },
    "scene" : 0,
    "scenes" : [
        {
            "name" : "Scene",
            "nodes" : [
                0
            ]
        }
    ],
    "nodes" : [
        {
            "mesh" : 0,
            "name" : "Cylinder"
        }
    ],
    "materials" : [
        {
            "doubleSided" : true,
            "emissiveFactor" : [
                0,
                0,
                0
            ],
            "name" : "Material.001",
            "pbrMetallicRoughness" : {
                "baseColorTexture" : {
                    "index" : 0,
                    "texCoord" : 0
                },
                "metallicFactor" : 0,
                "roughnessFactor" : 0.5
            }
        }
    ],
    "meshes" : [
        {
            "name" : "Cylinder",
            "primitives" : [
                {
                    "attributes" : {
                        "POSITION" : 0,
                        "NORMAL" : 1,
                        "TEXCOORD_0" : 2
                    },
                    "indices" : 3,
                    "material" : 0
                }
            ]
        }
    ],
    "textures" : [
        {
            "source" : 0
        }
    ],
    "images" : [
        {
            "bufferView" : 4,
            "mimeType" : "image/png",
            "name" : "castletexture"
        }
    ],
    "accessors" : [
        {
            "bufferView" : 0,
            "componentType" : 5126,
            "count" : 100,
            "max" : [
                0.15744002163410187,
                0.49000734090805054,
                0.1674591451883316
            ],
            "min" : [
                -0.17747826874256134,
                -2.110004425048828e-05,
                -0.1674591451883316
            ],
            "type" : "VEC3"
        },
        {
            "bufferView" : 1,
            "componentType" : 5126,
            "count" : 100,
            "type" : "VEC3"
        },
        {
            "bufferView" : 2,
            "componentType" : 5126,
            "count" : 100,
            "type" : "VEC2"
        },
        {
            "bufferView" : 3,
            "componentType" : 5123,
            "count" : 180,
            "type" : "SCALAR"
        }
    ],
    "bufferViews" : [
        {
            "buffer" : 0,
            "byteLength" : 1200,
            "byteOffset" : 0
        },
        {
            "buffer" : 0,
            "byteLength" : 1200,
            "byteOffset" : 1200
        },
        {
            "buffer" : 0,
            "byteLength" : 800,
            "byteOffset" : 2400
        },
        {
            "buffer" : 0,
            "byteLength" : 360,
            "byteOffset" : 3200
        },
        {
            "buffer" : 0,
            "byteLength" : 4651,
            "byteOffset" : 3560
        }
    ],
    "buffers" : [
        {
            "byteLength" : 8212,
            "uri" : "data:application/octet-stream;base64,"
        }
    ]
}
