{
    "asset" : {
        "generator" : "Khronos glTF Blender I/O v1.2.75",
        "version" : "2.0"
    },
    "scene" : 0,
    "scenes" : [
        {
            "name" : "Scene",
            "nodes" : [
                0
            ]
        }
    ],
    "nodes" : [
        {
            "mesh" : 0,
            "name" : "Cylinder"
        }
    ],
    "materials" : [
        {
            "doubleSided" : true,
            "emissiveFactor" : [
                0,
                0,
                0
            ],
            "name" : "Material.001",
            "pbrMetallicRoughness" : {
                "baseColorTexture" : {
                    "index" : 0,
                    "texCoord" : 0
                },
                "metallicFactor" : 0,
                "roughnessFactor" : 0.5
            }
        }
    ],
    "meshes" : [
        {
            "name" : "Cylinder",
            "primitives" : [
                {
                    "attributes" : {
                        "POSITION" : 0,
                        "NORMAL" : 1,
                        "TEXCOORD_0" : 2
                    },
                    "indices" : 3,
                    "material" : 0
                }
            ]
        }
    ],
    "textures" : [
        {
            "source" : 0
        }
    ],
    "images" : [
        {
            "bufferView" : 4,
            "mimeType" : "image/png",
            "name" : "castletexture"
        }
    ],
    "accessors" : [
        {
            "bufferView" : 0,
            "componentType" : 5126,
            "count" : 236,
            "max" : [
                0.08660414814949036,
                0.19540834426879883,
                0.2412622570991516
            ],
            "min" : [
                -0.10373875498771667,
                0.0041419630870223045,
                -0.2694317102432251
            ],
            "type" : "VEC3"
        },
        {
            "bufferView" : 1,
            "componentType" : 5126,
            "count" : 236,
            "type" : "VEC3"
        },
        {
            "bufferView" : 2,
            "componentType" : 5126,
            "count" : 236,
            "type" : "VEC2"
        },
        {
            "bufferView" : 3,
            "componentType" : 5123,
            "count" : 408,
            "type" : "SCALAR"
        }
    ],
    "bufferViews" : [
        {
            "buffer" : 0,
            "byteLength" : 2832,
            "byteOffset" : 0
        },
        {
            "buffer" : 0,
            "byteLength" : 2832,
            "byteOffset" : 2832
        },
        {
            "buffer" : 0,
            "byteLength" : 1888,
            "byteOffset" : 5664
        },
        {
            "buffer" : 0,
            "byteLength" : 816,
            "byteOffset" : 7552
        },
        {
            "buffer" : 0,
            "byteLength" : 4651,
            "byteOffset" : 8368
        }
    ],
    "buffers" : [
        {
            "byteLength" : 13020,
            "uri" : "data:application/octet-stream;base64,"
        }
    ]
}
