{
	"asset":{
		"generator":"Khronos glTF Blender I/O v4.5.48",
		"version":"2.0"
	},
	"scene":0,
	"scenes":[
		{
			"name":"Scene",
			"nodes":[
				0,
				1,
				2
			]
		}
	],
	"nodes":[
		{
			"mesh":0,
			"name":"COL1",
			"rotation":[
				0,
				0.7071068286895752,
				0,
				0.7071068286895752
			],
			"scale":[
				1.0240949392318726,
				0.5784026384353638,
				0.5949363112449646
			],
			"translation":[
				0.37407976388931274,
				0.5809407234191895,
				-9.98079776763916e-05
			]
		},
		{
			"mesh":1,
			"name":"COL2",
			"rotation":[
				0,
				0.7071068286895752,
				0,
				0.7071068286895752
			],
			"scale":[
				0.6888998746871948,
				0.5784026384353638,
				0.4385310113430023
			],
			"translation":[
				-0.6348446011543274,
				0.5809407234191895,
				-0.33507025241851807
			]
		},
		{
			"mesh":2,
			"name":"House5"
		}
	],
	"materials":[
		{
			"doubleSided":true,
			"name":"Texture"
		}
	],
	"meshes":[
		{
			"name":"\u7acb\u65b9\u4f53",
			"primitives":[
				{
					"attributes":{
						"POSITION":0,
						"NORMAL":1,
						"TEXCOORD_0":2
					},
					"indices":3
				}
			]
		},
		{
			"name":"\u7acb\u65b9\u4f53.001",
			"primitives":[
				{
					"attributes":{
						"POSITION":4,
						"NORMAL":5,
						"TEXCOORD_0":6
					},
					"indices":3
				}
			]
		},
		{
			"name":"Cube.000",
			"primitives":[
				{
					"attributes":{
						"POSITION":7,
						"NORMAL":8,
						"TEXCOORD_0":9
					},
					"indices":10,
					"material":0
				}
			]
		}
	],
	"accessors":[
		{
			"bufferView":0,
			"componentType":5126,
			"count":24,
			"max":[
				1,
				1,
				1
			],
			"min":[
				-1,
				-1,
				-1
			],
			"type":"VEC3"
		},
		{
			"bufferView":1,
			"componentType":5126,
			"count":24,
			"type":"VEC3"
		},
		{
			"bufferView":2,
			"componentType":5126,
			"count":24,
			"type":"VEC2"
		},
		{
			"bufferView":3,
			"componentType":5123,
			"count":36,
			"type":"SCALAR"
		},
		{
			"bufferView":4,
			"componentType":5126,
			"count":24,
			"max":[
				1,
				1,
				1
			],
			"min":[
				-1,
				-1,
				-1
			],
			"type":"VEC3"
		},
		{
			"bufferView":5,
			"componentType":5126,
			"count":24,
			"type":"VEC3"
		},
		{
			"bufferView":6,
			"componentType":5126,
			"count":24,
			"type":"VEC2"
		},
		{
			"bufferView":7,
			"componentType":5126,
			"count":4121,
			"max":[
				1.028169870376587,
				1.3386677503585815,
				1.094911813735962
			],
			"min":[
				-1.1353336572647095,
				-0.004091750364750624,
				-1.095330834388733
			],
			"type":"VEC3"
		},
		{
			"bufferView":8,
			"componentType":5126,
			"count":4121,
			"type":"VEC3"
		},
		{
			"bufferView":9,
			"componentType":5126,
			"count":4121,
			"type":"VEC2"
		},
		{
			"bufferView":10,
			"componentType":5123,
			"count":7872,
			"type":"SCALAR"
		}
	],
	"bufferViews":[
		{
			"buffer":0,
			"byteLength":288,
			"byteOffset":0,
			"target":34962
		},
		{
			"buffer":0,
			"byteLength":288,
			"byteOffset":288,
			"target":34962
		},
		{
			"buffer":0,
			"byteLength":192,
			"byteOffset":576,
			"target":34962
		},
		{
			"buffer":0,
			"byteLength":72,
			"byteOffset":768,
			"target":34963
		},
		{
			"buffer":0,
			"byteLength":288,
			"byteOffset":840,
			"target":34962
		},
		{
			"buffer":0,
			"byteLength":288,
			"byteOffset":1128,
			"target":34962
		},
		{
			"buffer":0,
			"byteLength":192,
			"byteOffset":1416,
			"target":34962
		},
		{
			"buffer":0,
			"byteLength":49452,
			"byteOffset":1608,
			"target":34962
		},
		{
			"buffer":0,
			"byteLength":49452,
			"byteOffset":51060,
			"target":34962
		},
		{
			"buffer":0,
			"byteLength":32968,
			"byteOffset":100512,
			"target":34962
		},
		{
			"buffer":0,
			"byteLength":15744,
			"byteOffset":133480,
			"target":34963
		}
	],
	"buffers":[
		{
			"byteLength":149224,
			"uri":"House5.bin"
		}
	]
}
