{
	"asset":{
		"generator":"Khronos glTF Blender I/O v4.5.48",
		"version":"2.0"
	},
	"extensionsUsed":[
		"KHR_materials_specular"
	],
	"scene":0,
	"scenes":[
		{
			"name":"Scene",
			"nodes":[
				0,
				1,
				2,
				3
			]
		}
	],
	"nodes":[
		{
			"mesh":0,
			"name":"building-type-a",
			"rotation":[
				0,
				-0.7071068286895752,
				0.7071068286895752,
				1.1520234011186403e-07
			]
		},
		{
			"mesh":1,
			"name":"fence1",
			"rotation":[
				0.5,
				0.5,
				-0.5,
				0.5000000596046448
			],
			"translation":[
				1.0061559677124023,
				0,
				0.17410069704055786
			]
		},
		{
			"mesh":2,
			"name":"fence3",
			"rotation":[
				0.5,
				0.5,
				-0.5,
				0.5000000596046448
			],
			"translation":[
				-1.0007351636886597,
				0,
				0.17410069704055786
			]
		},
		{
			"mesh":3,
			"name":"fence2",
			"rotation":[
				0.7071068286895752,
				0,
				0,
				0.7071068286895752
			],
			"translation":[
				0,
				0,
				-0.8342097401618958
			]
		}
	],
	"materials":[
		{
			"doubleSided":true,
			"extensions":{
				"KHR_materials_specular":{
					"specularFactor":0
				}
			},
			"name":"colormap",
			"pbrMetallicRoughness":{
				"baseColorTexture":{
					"index":0
				},
				"metallicFactor":0
			}
		},
		{
			"doubleSided":true,
			"extensions":{
				"KHR_materials_specular":{
					"specularFactor":0
				}
			},
			"name":"colormap.010",
			"pbrMetallicRoughness":{
				"baseColorTexture":{
					"index":1
				},
				"metallicFactor":0
			}
		},
		{
			"doubleSided":true,
			"extensions":{
				"KHR_materials_specular":{
					"specularFactor":0
				}
			},
			"name":"colormap.008",
			"pbrMetallicRoughness":{
				"baseColorTexture":{
					"index":2
				},
				"metallicFactor":0
			}
		},
		{
			"doubleSided":true,
			"extensions":{
				"KHR_materials_specular":{
					"specularFactor":0
				}
			},
			"name":"colormap.009",
			"pbrMetallicRoughness":{
				"baseColorTexture":{
					"index":3
				},
				"metallicFactor":0
			}
		},
		{
			"doubleSided":true,
			"extensions":{
				"KHR_materials_specular":{
					"specularFactor":0
				}
			},
			"name":"colormap.011",
			"pbrMetallicRoughness":{
				"baseColorTexture":{
					"index":4
				},
				"metallicFactor":0
			}
		},
		{
			"doubleSided":true,
			"extensions":{
				"KHR_materials_specular":{
					"specularFactor":0
				}
			},
			"name":"colormap.015",
			"pbrMetallicRoughness":{
				"baseColorTexture":{
					"index":5
				},
				"metallicFactor":0
			}
		},
		{
			"doubleSided":true,
			"extensions":{
				"KHR_materials_specular":{
					"specularFactor":0
				}
			},
			"name":"colormap.014",
			"pbrMetallicRoughness":{
				"baseColorTexture":{
					"index":6
				},
				"metallicFactor":0
			}
		},
		{
			"doubleSided":true,
			"extensions":{
				"KHR_materials_specular":{
					"specularFactor":0
				}
			},
			"name":"colormap.016",
			"pbrMetallicRoughness":{
				"baseColorTexture":{
					"index":7
				},
				"metallicFactor":0
			}
		},
		{
			"doubleSided":true,
			"extensions":{
				"KHR_materials_specular":{
					"specularFactor":0
				}
			},
			"name":"colormap.017",
			"pbrMetallicRoughness":{
				"baseColorTexture":{
					"index":8
				},
				"metallicFactor":0
			}
		},
		{
			"doubleSided":true,
			"extensions":{
				"KHR_materials_specular":{
					"specularFactor":0
				}
			},
			"name":"colormap.004",
			"pbrMetallicRoughness":{
				"baseColorTexture":{
					"index":9
				},
				"metallicFactor":0
			}
		},
		{
			"doubleSided":true,
			"extensions":{
				"KHR_materials_specular":{
					"specularFactor":0
				}
			},
			"name":"colormap.006",
			"pbrMetallicRoughness":{
				"baseColorTexture":{
					"index":10
				},
				"metallicFactor":0
			}
		},
		{
			"doubleSided":true,
			"extensions":{
				"KHR_materials_specular":{
					"specularFactor":0
				}
			},
			"name":"colormap.007",
			"pbrMetallicRoughness":{
				"baseColorTexture":{
					"index":11
				},
				"metallicFactor":0
			}
		},
		{
			"doubleSided":true,
			"extensions":{
				"KHR_materials_specular":{
					"specularFactor":0
				}
			},
			"name":"colormap.012",
			"pbrMetallicRoughness":{
				"baseColorTexture":{
					"index":12
				},
				"metallicFactor":0
			}
		},
		{
			"doubleSided":true,
			"extensions":{
				"KHR_materials_specular":{
					"specularFactor":0
				}
			},
			"name":"colormap.013",
			"pbrMetallicRoughness":{
				"baseColorTexture":{
					"index":13
				},
				"metallicFactor":0
			}
		}
	],
	"meshes":[
		{
			"name":"building-type-a",
			"primitives":[
				{
					"attributes":{
						"POSITION":0,
						"NORMAL":1,
						"TEXCOORD_0":2,
						"COLOR_0":3,
						"COLOR_1":4
					},
					"indices":5,
					"material":0
				}
			]
		},
		{
			"name":"fence1",
			"primitives":[
				{
					"attributes":{
						"POSITION":6,
						"NORMAL":7,
						"TEXCOORD_0":8,
						"COLOR_0":9,
						"COLOR_1":10
					},
					"indices":11,
					"material":1
				},
				{
					"attributes":{
						"POSITION":12,
						"NORMAL":13,
						"TEXCOORD_0":14,
						"COLOR_0":15,
						"COLOR_1":16
					},
					"indices":11,
					"material":2
				},
				{
					"attributes":{
						"POSITION":17,
						"NORMAL":18,
						"TEXCOORD_0":19,
						"COLOR_0":20,
						"COLOR_1":21
					},
					"indices":11,
					"material":3
				},
				{
					"attributes":{
						"POSITION":22,
						"NORMAL":23,
						"TEXCOORD_0":24,
						"COLOR_0":25,
						"COLOR_1":26
					},
					"indices":11,
					"material":4
				}
			]
		},
		{
			"name":"fence3",
			"primitives":[
				{
					"attributes":{
						"POSITION":27,
						"NORMAL":28,
						"TEXCOORD_0":29,
						"COLOR_0":30,
						"COLOR_1":31
					},
					"indices":11,
					"material":5
				},
				{
					"attributes":{
						"POSITION":32,
						"NORMAL":33,
						"TEXCOORD_0":34,
						"COLOR_0":35,
						"COLOR_1":36
					},
					"indices":11,
					"material":6
				},
				{
					"attributes":{
						"POSITION":37,
						"NORMAL":38,
						"TEXCOORD_0":39,
						"COLOR_0":40,
						"COLOR_1":41
					},
					"indices":11,
					"material":7
				},
				{
					"attributes":{
						"POSITION":42,
						"NORMAL":43,
						"TEXCOORD_0":44,
						"COLOR_0":45,
						"COLOR_1":46
					},
					"indices":11,
					"material":8
				}
			]
		},
		{
			"name":"fence2",
			"primitives":[
				{
					"attributes":{
						"POSITION":47,
						"NORMAL":48,
						"TEXCOORD_0":49,
						"COLOR_0":50,
						"COLOR_1":51
					},
					"indices":11,
					"material":9
				},
				{
					"attributes":{
						"POSITION":52,
						"NORMAL":53,
						"TEXCOORD_0":54,
						"COLOR_0":55,
						"COLOR_1":56
					},
					"indices":11,
					"material":10
				},
				{
					"attributes":{
						"POSITION":57,
						"NORMAL":58,
						"TEXCOORD_0":59,
						"COLOR_0":60,
						"COLOR_1":61
					},
					"indices":11,
					"material":11
				},
				{
					"attributes":{
						"POSITION":62,
						"NORMAL":63,
						"TEXCOORD_0":64,
						"COLOR_0":65,
						"COLOR_1":66
					},
					"indices":11,
					"material":12
				},
				{
					"attributes":{
						"POSITION":67,
						"NORMAL":68,
						"TEXCOORD_0":69,
						"COLOR_0":70,
						"COLOR_1":71
					},
					"indices":11,
					"material":13
				}
			]
		}
	],
	"textures":[
		{
			"sampler":0,
			"source":0
		},
		{
			"sampler":0,
			"source":0
		},
		{
			"sampler":0,
			"source":0
		},
		{
			"sampler":0,
			"source":0
		},
		{
			"sampler":0,
			"source":0
		},
		{
			"sampler":0,
			"source":0
		},
		{
			"sampler":0,
			"source":0
		},
		{
			"sampler":0,
			"source":0
		},
		{
			"sampler":0,
			"source":0
		},
		{
			"sampler":0,
			"source":0
		},
		{
			"sampler":0,
			"source":0
		},
		{
			"sampler":0,
			"source":0
		},
		{
			"sampler":0,
			"source":0
		},
		{
			"sampler":0,
			"source":0
		}
	],
	"images":[
		{
			"mimeType":"image/png",
			"name":"colormap",
			"uri":"colormap.png"
		}
	],
	"accessors":[
		{
			"bufferView":0,
			"componentType":5126,
			"count":873,
			"max":[
				0.6499999761581421,
				0.5140689015388489,
				0
			],
			"min":[
				-0.6499999761581421,
				-0.5140689015388489,
				-0.8335409760475159
			],
			"type":"VEC3"
		},
		{
			"bufferView":1,
			"componentType":5126,
			"count":873,
			"type":"VEC3"
		},
		{
			"bufferView":2,
			"componentType":5126,
			"count":873,
			"type":"VEC2"
		},
		{
			"bufferView":3,
			"componentType":5121,
			"count":873,
			"normalized":true,
			"type":"VEC4"
		},
		{
			"bufferView":4,
			"componentType":5123,
			"count":873,
			"normalized":true,
			"type":"VEC4"
		},
		{
			"bufferView":5,
			"componentType":5123,
			"count":3522,
			"type":"SCALAR"
		},
		{
			"bufferView":6,
			"componentType":5126,
			"count":56,
			"max":[
				0.23749999701976776,
				0.03750000149011612,
				0
			],
			"min":[
				-0.23749999701976776,
				-0.03750000149011612,
				-0.27000001072883606
			],
			"type":"VEC3"
		},
		{
			"bufferView":7,
			"componentType":5126,
			"count":56,
			"type":"VEC3"
		},
		{
			"bufferView":8,
			"componentType":5126,
			"count":56,
			"type":"VEC2"
		},
		{
			"bufferView":9,
			"componentType":5121,
			"count":56,
			"normalized":true,
			"type":"VEC4"
		},
		{
			"bufferView":10,
			"componentType":5123,
			"count":56,
			"normalized":true,
			"type":"VEC4"
		},
		{
			"bufferView":11,
			"componentType":5123,
			"count":264,
			"type":"SCALAR"
		},
		{
			"bufferView":12,
			"componentType":5126,
			"count":56,
			"max":[
				1.0445556640625,
				0.03750000149011612,
				0
			],
			"min":[
				0.5695556402206421,
				-0.03750000149011612,
				-0.27000001072883606
			],
			"type":"VEC3"
		},
		{
			"bufferView":13,
			"componentType":5126,
			"count":56,
			"type":"VEC3"
		},
		{
			"bufferView":14,
			"componentType":5126,
			"count":56,
			"type":"VEC2"
		},
		{
			"bufferView":15,
			"componentType":5121,
			"count":56,
			"normalized":true,
			"type":"VEC4"
		},
		{
			"bufferView":16,
			"componentType":5123,
			"count":56,
			"normalized":true,
			"type":"VEC4"
		},
		{
			"bufferView":17,
			"componentType":5126,
			"count":56,
			"max":[
				0.6436954736709595,
				0.03750000149011612,
				0
			],
			"min":[
				0.16869549453258514,
				-0.03750000149011612,
				-0.27000001072883606
			],
			"type":"VEC3"
		},
		{
			"bufferView":18,
			"componentType":5126,
			"count":56,
			"type":"VEC3"
		},
		{
			"bufferView":19,
			"componentType":5126,
			"count":56,
			"type":"VEC2"
		},
		{
			"bufferView":20,
			"componentType":5121,
			"count":56,
			"normalized":true,
			"type":"VEC4"
		},
		{
			"bufferView":21,
			"componentType":5123,
			"count":56,
			"normalized":true,
			"type":"VEC4"
		},
		{
			"bufferView":22,
			"componentType":5126,
			"count":56,
			"max":[
				-0.1658353954553604,
				0.03750000149011612,
				0
			],
			"min":[
				-0.6408354043960571,
				-0.03750000149011612,
				-0.27000001072883606
			],
			"type":"VEC3"
		},
		{
			"bufferView":23,
			"componentType":5126,
			"count":56,
			"type":"VEC3"
		},
		{
			"bufferView":24,
			"componentType":5126,
			"count":56,
			"type":"VEC2"
		},
		{
			"bufferView":25,
			"componentType":5121,
			"count":56,
			"normalized":true,
			"type":"VEC4"
		},
		{
			"bufferView":26,
			"componentType":5123,
			"count":56,
			"normalized":true,
			"type":"VEC4"
		},
		{
			"bufferView":27,
			"componentType":5126,
			"count":56,
			"max":[
				0.23749999701976776,
				0.03750000149011612,
				0
			],
			"min":[
				-0.23749999701976776,
				-0.03750000149011612,
				-0.27000001072883606
			],
			"type":"VEC3"
		},
		{
			"bufferView":28,
			"componentType":5126,
			"count":56,
			"type":"VEC3"
		},
		{
			"bufferView":29,
			"componentType":5126,
			"count":56,
			"type":"VEC2"
		},
		{
			"bufferView":30,
			"componentType":5121,
			"count":56,
			"normalized":true,
			"type":"VEC4"
		},
		{
			"bufferView":31,
			"componentType":5123,
			"count":56,
			"normalized":true,
			"type":"VEC4"
		},
		{
			"bufferView":32,
			"componentType":5126,
			"count":56,
			"max":[
				-0.1658353954553604,
				0.03750000149011612,
				0
			],
			"min":[
				-0.6408354043960571,
				-0.03750000149011612,
				-0.27000001072883606
			],
			"type":"VEC3"
		},
		{
			"bufferView":33,
			"componentType":5126,
			"count":56,
			"type":"VEC3"
		},
		{
			"bufferView":34,
			"componentType":5126,
			"count":56,
			"type":"VEC2"
		},
		{
			"bufferView":35,
			"componentType":5121,
			"count":56,
			"normalized":true,
			"type":"VEC4"
		},
		{
			"bufferView":36,
			"componentType":5123,
			"count":56,
			"normalized":true,
			"type":"VEC4"
		},
		{
			"bufferView":37,
			"componentType":5126,
			"count":56,
			"max":[
				0.6436954736709595,
				0.03750000149011612,
				0
			],
			"min":[
				0.16869549453258514,
				-0.03750000149011612,
				-0.27000001072883606
			],
			"type":"VEC3"
		},
		{
			"bufferView":38,
			"componentType":5126,
			"count":56,
			"type":"VEC3"
		},
		{
			"bufferView":39,
			"componentType":5126,
			"count":56,
			"type":"VEC2"
		},
		{
			"bufferView":40,
			"componentType":5121,
			"count":56,
			"normalized":true,
			"type":"VEC4"
		},
		{
			"bufferView":41,
			"componentType":5123,
			"count":56,
			"normalized":true,
			"type":"VEC4"
		},
		{
			"bufferView":42,
			"componentType":5126,
			"count":56,
			"max":[
				1.0445556640625,
				0.03750000149011612,
				0
			],
			"min":[
				0.5695556402206421,
				-0.03750000149011612,
				-0.27000001072883606
			],
			"type":"VEC3"
		},
		{
			"bufferView":43,
			"componentType":5126,
			"count":56,
			"type":"VEC3"
		},
		{
			"bufferView":44,
			"componentType":5126,
			"count":56,
			"type":"VEC2"
		},
		{
			"bufferView":45,
			"componentType":5121,
			"count":56,
			"normalized":true,
			"type":"VEC4"
		},
		{
			"bufferView":46,
			"componentType":5123,
			"count":56,
			"normalized":true,
			"type":"VEC4"
		},
		{
			"bufferView":47,
			"componentType":5126,
			"count":56,
			"max":[
				0.23749999701976776,
				0.03750000149011612,
				0
			],
			"min":[
				-0.23749999701976776,
				-0.03750000149011612,
				-0.27000001072883606
			],
			"type":"VEC3"
		},
		{
			"bufferView":48,
			"componentType":5126,
			"count":56,
			"type":"VEC3"
		},
		{
			"bufferView":49,
			"componentType":5126,
			"count":56,
			"type":"VEC2"
		},
		{
			"bufferView":50,
			"componentType":5121,
			"count":56,
			"normalized":true,
			"type":"VEC4"
		},
		{
			"bufferView":51,
			"componentType":5123,
			"count":56,
			"normalized":true,
			"type":"VEC4"
		},
		{
			"bufferView":52,
			"componentType":5126,
			"count":56,
			"max":[
				0.6425343751907349,
				0.03750000149011612,
				0
			],
			"min":[
				0.16753436625003815,
				-0.03750000149011612,
				-0.27000001072883606
			],
			"type":"VEC3"
		},
		{
			"bufferView":53,
			"componentType":5126,
			"count":56,
			"type":"VEC3"
		},
		{
			"bufferView":54,
			"componentType":5126,
			"count":56,
			"type":"VEC2"
		},
		{
			"bufferView":55,
			"componentType":5121,
			"count":56,
			"normalized":true,
			"type":"VEC4"
		},
		{
			"bufferView":56,
			"componentType":5123,
			"count":56,
			"normalized":true,
			"type":"VEC4"
		},
		{
			"bufferView":57,
			"componentType":5126,
			"count":56,
			"max":[
				1.0468436479568481,
				0.03750000149011612,
				0
			],
			"min":[
				0.571843683719635,
				-0.03750000149011612,
				-0.27000001072883606
			],
			"type":"VEC3"
		},
		{
			"bufferView":58,
			"componentType":5126,
			"count":56,
			"type":"VEC3"
		},
		{
			"bufferView":59,
			"componentType":5126,
			"count":56,
			"type":"VEC2"
		},
		{
			"bufferView":60,
			"componentType":5121,
			"count":56,
			"normalized":true,
			"type":"VEC4"
		},
		{
			"bufferView":61,
			"componentType":5123,
			"count":56,
			"normalized":true,
			"type":"VEC4"
		},
		{
			"bufferView":62,
			"componentType":5126,
			"count":56,
			"max":[
				-0.16587869822978973,
				0.03750000149011612,
				0
			],
			"min":[
				-0.6408786773681641,
				-0.03750000149011612,
				-0.27000001072883606
			],
			"type":"VEC3"
		},
		{
			"bufferView":63,
			"componentType":5126,
			"count":56,
			"type":"VEC3"
		},
		{
			"bufferView":64,
			"componentType":5126,
			"count":56,
			"type":"VEC2"
		},
		{
			"bufferView":65,
			"componentType":5121,
			"count":56,
			"normalized":true,
			"type":"VEC4"
		},
		{
			"bufferView":66,
			"componentType":5123,
			"count":56,
			"normalized":true,
			"type":"VEC4"
		},
		{
			"bufferView":67,
			"componentType":5126,
			"count":56,
			"max":[
				-0.570188045501709,
				0.03750000149011612,
				0
			],
			"min":[
				-1.045188069343567,
				-0.03750000149011612,
				-0.27000001072883606
			],
			"type":"VEC3"
		},
		{
			"bufferView":68,
			"componentType":5126,
			"count":56,
			"type":"VEC3"
		},
		{
			"bufferView":69,
			"componentType":5126,
			"count":56,
			"type":"VEC2"
		},
		{
			"bufferView":70,
			"componentType":5121,
			"count":56,
			"normalized":true,
			"type":"VEC4"
		},
		{
			"bufferView":71,
			"componentType":5123,
			"count":56,
			"normalized":true,
			"type":"VEC4"
		}
	],
	"bufferViews":[
		{
			"buffer":0,
			"byteLength":10476,
			"byteOffset":0,
			"target":34962
		},
		{
			"buffer":0,
			"byteLength":10476,
			"byteOffset":10476,
			"target":34962
		},
		{
			"buffer":0,
			"byteLength":6984,
			"byteOffset":20952,
			"target":34962
		},
		{
			"buffer":0,
			"byteLength":3492,
			"byteOffset":27936,
			"target":34962
		},
		{
			"buffer":0,
			"byteLength":6984,
			"byteOffset":31428,
			"target":34962
		},
		{
			"buffer":0,
			"byteLength":7044,
			"byteOffset":38412,
			"target":34963
		},
		{
			"buffer":0,
			"byteLength":672,
			"byteOffset":45456,
			"target":34962
		},
		{
			"buffer":0,
			"byteLength":672,
			"byteOffset":46128,
			"target":34962
		},
		{
			"buffer":0,
			"byteLength":448,
			"byteOffset":46800,
			"target":34962
		},
		{
			"buffer":0,
			"byteLength":224,
			"byteOffset":47248,
			"target":34962
		},
		{
			"buffer":0,
			"byteLength":448,
			"byteOffset":47472,
			"target":34962
		},
		{
			"buffer":0,
			"byteLength":528,
			"byteOffset":47920,
			"target":34963
		},
		{
			"buffer":0,
			"byteLength":672,
			"byteOffset":48448,
			"target":34962
		},
		{
			"buffer":0,
			"byteLength":672,
			"byteOffset":49120,
			"target":34962
		},
		{
			"buffer":0,
			"byteLength":448,
			"byteOffset":49792,
			"target":34962
		},
		{
			"buffer":0,
			"byteLength":224,
			"byteOffset":50240,
			"target":34962
		},
		{
			"buffer":0,
			"byteLength":448,
			"byteOffset":50464,
			"target":34962
		},
		{
			"buffer":0,
			"byteLength":672,
			"byteOffset":50912,
			"target":34962
		},
		{
			"buffer":0,
			"byteLength":672,
			"byteOffset":51584,
			"target":34962
		},
		{
			"buffer":0,
			"byteLength":448,
			"byteOffset":52256,
			"target":34962
		},
		{
			"buffer":0,
			"byteLength":224,
			"byteOffset":52704,
			"target":34962
		},
		{
			"buffer":0,
			"byteLength":448,
			"byteOffset":52928,
			"target":34962
		},
		{
			"buffer":0,
			"byteLength":672,
			"byteOffset":53376,
			"target":34962
		},
		{
			"buffer":0,
			"byteLength":672,
			"byteOffset":54048,
			"target":34962
		},
		{
			"buffer":0,
			"byteLength":448,
			"byteOffset":54720,
			"target":34962
		},
		{
			"buffer":0,
			"byteLength":224,
			"byteOffset":55168,
			"target":34962
		},
		{
			"buffer":0,
			"byteLength":448,
			"byteOffset":55392,
			"target":34962
		},
		{
			"buffer":0,
			"byteLength":672,
			"byteOffset":55840,
			"target":34962
		},
		{
			"buffer":0,
			"byteLength":672,
			"byteOffset":56512,
			"target":34962
		},
		{
			"buffer":0,
			"byteLength":448,
			"byteOffset":57184,
			"target":34962
		},
		{
			"buffer":0,
			"byteLength":224,
			"byteOffset":57632,
			"target":34962
		},
		{
			"buffer":0,
			"byteLength":448,
			"byteOffset":57856,
			"target":34962
		},
		{
			"buffer":0,
			"byteLength":672,
			"byteOffset":58304,
			"target":34962
		},
		{
			"buffer":0,
			"byteLength":672,
			"byteOffset":58976,
			"target":34962
		},
		{
			"buffer":0,
			"byteLength":448,
			"byteOffset":59648,
			"target":34962
		},
		{
			"buffer":0,
			"byteLength":224,
			"byteOffset":60096,
			"target":34962
		},
		{
			"buffer":0,
			"byteLength":448,
			"byteOffset":60320,
			"target":34962
		},
		{
			"buffer":0,
			"byteLength":672,
			"byteOffset":60768,
			"target":34962
		},
		{
			"buffer":0,
			"byteLength":672,
			"byteOffset":61440,
			"target":34962
		},
		{
			"buffer":0,
			"byteLength":448,
			"byteOffset":62112,
			"target":34962
		},
		{
			"buffer":0,
			"byteLength":224,
			"byteOffset":62560,
			"target":34962
		},
		{
			"buffer":0,
			"byteLength":448,
			"byteOffset":62784,
			"target":34962
		},
		{
			"buffer":0,
			"byteLength":672,
			"byteOffset":63232,
			"target":34962
		},
		{
			"buffer":0,
			"byteLength":672,
			"byteOffset":63904,
			"target":34962
		},
		{
			"buffer":0,
			"byteLength":448,
			"byteOffset":64576,
			"target":34962
		},
		{
			"buffer":0,
			"byteLength":224,
			"byteOffset":65024,
			"target":34962
		},
		{
			"buffer":0,
			"byteLength":448,
			"byteOffset":65248,
			"target":34962
		},
		{
			"buffer":0,
			"byteLength":672,
			"byteOffset":65696,
			"target":34962
		},
		{
			"buffer":0,
			"byteLength":672,
			"byteOffset":66368,
			"target":34962
		},
		{
			"buffer":0,
			"byteLength":448,
			"byteOffset":67040,
			"target":34962
		},
		{
			"buffer":0,
			"byteLength":224,
			"byteOffset":67488,
			"target":34962
		},
		{
			"buffer":0,
			"byteLength":448,
			"byteOffset":67712,
			"target":34962
		},
		{
			"buffer":0,
			"byteLength":672,
			"byteOffset":68160,
			"target":34962
		},
		{
			"buffer":0,
			"byteLength":672,
			"byteOffset":68832,
			"target":34962
		},
		{
			"buffer":0,
			"byteLength":448,
			"byteOffset":69504,
			"target":34962
		},
		{
			"buffer":0,
			"byteLength":224,
			"byteOffset":69952,
			"target":34962
		},
		{
			"buffer":0,
			"byteLength":448,
			"byteOffset":70176,
			"target":34962
		},
		{
			"buffer":0,
			"byteLength":672,
			"byteOffset":70624,
			"target":34962
		},
		{
			"buffer":0,
			"byteLength":672,
			"byteOffset":71296,
			"target":34962
		},
		{
			"buffer":0,
			"byteLength":448,
			"byteOffset":71968,
			"target":34962
		},
		{
			"buffer":0,
			"byteLength":224,
			"byteOffset":72416,
			"target":34962
		},
		{
			"buffer":0,
			"byteLength":448,
			"byteOffset":72640,
			"target":34962
		},
		{
			"buffer":0,
			"byteLength":672,
			"byteOffset":73088,
			"target":34962
		},
		{
			"buffer":0,
			"byteLength":672,
			"byteOffset":73760,
			"target":34962
		},
		{
			"buffer":0,
			"byteLength":448,
			"byteOffset":74432,
			"target":34962
		},
		{
			"buffer":0,
			"byteLength":224,
			"byteOffset":74880,
			"target":34962
		},
		{
			"buffer":0,
			"byteLength":448,
			"byteOffset":75104,
			"target":34962
		},
		{
			"buffer":0,
			"byteLength":672,
			"byteOffset":75552,
			"target":34962
		},
		{
			"buffer":0,
			"byteLength":672,
			"byteOffset":76224,
			"target":34962
		},
		{
			"buffer":0,
			"byteLength":448,
			"byteOffset":76896,
			"target":34962
		},
		{
			"buffer":0,
			"byteLength":224,
			"byteOffset":77344,
			"target":34962
		},
		{
			"buffer":0,
			"byteLength":448,
			"byteOffset":77568,
			"target":34962
		}
	],
	"samplers":[
		{
			"magFilter":9729,
			"minFilter":9987
		}
	],
	"buffers":[
		{
			"byteLength":78016,
			"uri":"House1.bin"
		}
	]
}
