{
	"asset":{
		"generator":"Khronos glTF Blender I/O v4.5.48",
		"version":"2.0"
	},
	"extensionsUsed":[
		"KHR_materials_specular"
	],
	"scene":0,
	"scenes":[
		{
			"name":"Scene",
			"nodes":[
				0,
				1,
				2,
				3
			]
		}
	],
	"nodes":[
		{
			"mesh":0,
			"name":"fence1",
			"rotation":[
				0.5,
				0.5,
				-0.5,
				0.5000000596046448
			],
			"translation":[
				1.0061559677124023,
				0,
				0.17410069704055786
			]
		},
		{
			"mesh":1,
			"name":"fence3",
			"rotation":[
				0.5,
				0.5,
				-0.5,
				0.5000000596046448
			],
			"translation":[
				-1.0007351636886597,
				0,
				0.17410069704055786
			]
		},
		{
			"mesh":2,
			"name":"fence2",
			"rotation":[
				0.7071068286895752,
				0,
				0,
				0.7071068286895752
			],
			"translation":[
				0,
				0,
				-0.8342097401618958
			]
		},
		{
			"mesh":3,
			"name":"building-type-g",
			"rotation":[
				0,
				-0.7071068286895752,
				0.7071068286895752,
				3.090862321641907e-08
			]
		}
	],
	"materials":[
		{
			"doubleSided":true,
			"extensions":{
				"KHR_materials_specular":{
					"specularFactor":0
				}
			},
			"name":"colormap.010",
			"pbrMetallicRoughness":{
				"baseColorTexture":{
					"index":0
				},
				"metallicFactor":0
			}
		},
		{
			"doubleSided":true,
			"extensions":{
				"KHR_materials_specular":{
					"specularFactor":0
				}
			},
			"name":"colormap.008",
			"pbrMetallicRoughness":{
				"baseColorTexture":{
					"index":1
				},
				"metallicFactor":0
			}
		},
		{
			"doubleSided":true,
			"extensions":{
				"KHR_materials_specular":{
					"specularFactor":0
				}
			},
			"name":"colormap.009",
			"pbrMetallicRoughness":{
				"baseColorTexture":{
					"index":2
				},
				"metallicFactor":0
			}
		},
		{
			"doubleSided":true,
			"extensions":{
				"KHR_materials_specular":{
					"specularFactor":0
				}
			},
			"name":"colormap.011",
			"pbrMetallicRoughness":{
				"baseColorTexture":{
					"index":3
				},
				"metallicFactor":0
			}
		},
		{
			"doubleSided":true,
			"extensions":{
				"KHR_materials_specular":{
					"specularFactor":0
				}
			},
			"name":"colormap.015",
			"pbrMetallicRoughness":{
				"baseColorTexture":{
					"index":4
				},
				"metallicFactor":0
			}
		},
		{
			"doubleSided":true,
			"extensions":{
				"KHR_materials_specular":{
					"specularFactor":0
				}
			},
			"name":"colormap.014",
			"pbrMetallicRoughness":{
				"baseColorTexture":{
					"index":5
				},
				"metallicFactor":0
			}
		},
		{
			"doubleSided":true,
			"extensions":{
				"KHR_materials_specular":{
					"specularFactor":0
				}
			},
			"name":"colormap.016",
			"pbrMetallicRoughness":{
				"baseColorTexture":{
					"index":6
				},
				"metallicFactor":0
			}
		},
		{
			"doubleSided":true,
			"extensions":{
				"KHR_materials_specular":{
					"specularFactor":0
				}
			},
			"name":"colormap.017",
			"pbrMetallicRoughness":{
				"baseColorTexture":{
					"index":7
				},
				"metallicFactor":0
			}
		},
		{
			"doubleSided":true,
			"extensions":{
				"KHR_materials_specular":{
					"specularFactor":0
				}
			},
			"name":"colormap.004",
			"pbrMetallicRoughness":{
				"baseColorTexture":{
					"index":8
				},
				"metallicFactor":0
			}
		},
		{
			"doubleSided":true,
			"extensions":{
				"KHR_materials_specular":{
					"specularFactor":0
				}
			},
			"name":"colormap.006",
			"pbrMetallicRoughness":{
				"baseColorTexture":{
					"index":9
				},
				"metallicFactor":0
			}
		},
		{
			"doubleSided":true,
			"extensions":{
				"KHR_materials_specular":{
					"specularFactor":0
				}
			},
			"name":"colormap.007",
			"pbrMetallicRoughness":{
				"baseColorTexture":{
					"index":10
				},
				"metallicFactor":0
			}
		},
		{
			"doubleSided":true,
			"extensions":{
				"KHR_materials_specular":{
					"specularFactor":0
				}
			},
			"name":"colormap.012",
			"pbrMetallicRoughness":{
				"baseColorTexture":{
					"index":11
				},
				"metallicFactor":0
			}
		},
		{
			"doubleSided":true,
			"extensions":{
				"KHR_materials_specular":{
					"specularFactor":0
				}
			},
			"name":"colormap.013",
			"pbrMetallicRoughness":{
				"baseColorTexture":{
					"index":12
				},
				"metallicFactor":0
			}
		},
		{
			"doubleSided":true,
			"extensions":{
				"KHR_materials_specular":{
					"specularFactor":0
				}
			},
			"name":"colormap.020",
			"pbrMetallicRoughness":{
				"baseColorTexture":{
					"index":13
				},
				"metallicFactor":0
			}
		}
	],
	"meshes":[
		{
			"name":"fence1",
			"primitives":[
				{
					"attributes":{
						"POSITION":0,
						"NORMAL":1,
						"TEXCOORD_0":2,
						"COLOR_0":3,
						"COLOR_1":4
					},
					"indices":5,
					"material":0
				},
				{
					"attributes":{
						"POSITION":6,
						"NORMAL":7,
						"TEXCOORD_0":8,
						"COLOR_0":9,
						"COLOR_1":10
					},
					"indices":5,
					"material":1
				},
				{
					"attributes":{
						"POSITION":11,
						"NORMAL":12,
						"TEXCOORD_0":13,
						"COLOR_0":14,
						"COLOR_1":15
					},
					"indices":5,
					"material":2
				},
				{
					"attributes":{
						"POSITION":16,
						"NORMAL":17,
						"TEXCOORD_0":18,
						"COLOR_0":19,
						"COLOR_1":20
					},
					"indices":5,
					"material":3
				}
			]
		},
		{
			"name":"fence3",
			"primitives":[
				{
					"attributes":{
						"POSITION":21,
						"NORMAL":22,
						"TEXCOORD_0":23,
						"COLOR_0":24,
						"COLOR_1":25
					},
					"indices":5,
					"material":4
				},
				{
					"attributes":{
						"POSITION":26,
						"NORMAL":27,
						"TEXCOORD_0":28,
						"COLOR_0":29,
						"COLOR_1":30
					},
					"indices":5,
					"material":5
				},
				{
					"attributes":{
						"POSITION":31,
						"NORMAL":32,
						"TEXCOORD_0":33,
						"COLOR_0":34,
						"COLOR_1":35
					},
					"indices":5,
					"material":6
				},
				{
					"attributes":{
						"POSITION":36,
						"NORMAL":37,
						"TEXCOORD_0":38,
						"COLOR_0":39,
						"COLOR_1":40
					},
					"indices":5,
					"material":7
				}
			]
		},
		{
			"name":"fence2",
			"primitives":[
				{
					"attributes":{
						"POSITION":41,
						"NORMAL":42,
						"TEXCOORD_0":43,
						"COLOR_0":44,
						"COLOR_1":45
					},
					"indices":5,
					"material":8
				},
				{
					"attributes":{
						"POSITION":46,
						"NORMAL":47,
						"TEXCOORD_0":48,
						"COLOR_0":49,
						"COLOR_1":50
					},
					"indices":5,
					"material":9
				},
				{
					"attributes":{
						"POSITION":51,
						"NORMAL":52,
						"TEXCOORD_0":53,
						"COLOR_0":54,
						"COLOR_1":55
					},
					"indices":5,
					"material":10
				},
				{
					"attributes":{
						"POSITION":56,
						"NORMAL":57,
						"TEXCOORD_0":58,
						"COLOR_0":59,
						"COLOR_1":60
					},
					"indices":5,
					"material":11
				},
				{
					"attributes":{
						"POSITION":61,
						"NORMAL":62,
						"TEXCOORD_0":63,
						"COLOR_0":64,
						"COLOR_1":65
					},
					"indices":5,
					"material":12
				}
			]
		},
		{
			"name":"building-type-g",
			"primitives":[
				{
					"attributes":{
						"POSITION":66,
						"NORMAL":67,
						"TEXCOORD_0":68,
						"COLOR_0":69,
						"COLOR_1":70
					},
					"indices":71,
					"material":13
				}
			]
		}
	],
	"textures":[
		{
			"sampler":0,
			"source":0
		},
		{
			"sampler":0,
			"source":0
		},
		{
			"sampler":0,
			"source":0
		},
		{
			"sampler":0,
			"source":0
		},
		{
			"sampler":0,
			"source":0
		},
		{
			"sampler":0,
			"source":0
		},
		{
			"sampler":0,
			"source":0
		},
		{
			"sampler":0,
			"source":0
		},
		{
			"sampler":0,
			"source":0
		},
		{
			"sampler":0,
			"source":0
		},
		{
			"sampler":0,
			"source":0
		},
		{
			"sampler":0,
			"source":0
		},
		{
			"sampler":0,
			"source":0
		},
		{
			"sampler":0,
			"source":0
		}
	],
	"images":[
		{
			"mimeType":"image/png",
			"name":"colormap",
			"uri":"colormap.png"
		}
	],
	"accessors":[
		{
			"bufferView":0,
			"componentType":5126,
			"count":56,
			"max":[
				0.23749999701976776,
				0.03750000149011612,
				0
			],
			"min":[
				-0.23749999701976776,
				-0.03750000149011612,
				-0.27000001072883606
			],
			"type":"VEC3"
		},
		{
			"bufferView":1,
			"componentType":5126,
			"count":56,
			"type":"VEC3"
		},
		{
			"bufferView":2,
			"componentType":5126,
			"count":56,
			"type":"VEC2"
		},
		{
			"bufferView":3,
			"componentType":5121,
			"count":56,
			"normalized":true,
			"type":"VEC4"
		},
		{
			"bufferView":4,
			"componentType":5123,
			"count":56,
			"normalized":true,
			"type":"VEC4"
		},
		{
			"bufferView":5,
			"componentType":5123,
			"count":264,
			"type":"SCALAR"
		},
		{
			"bufferView":6,
			"componentType":5126,
			"count":56,
			"max":[
				1.0445556640625,
				0.03750000149011612,
				0
			],
			"min":[
				0.5695556402206421,
				-0.03750000149011612,
				-0.27000001072883606
			],
			"type":"VEC3"
		},
		{
			"bufferView":7,
			"componentType":5126,
			"count":56,
			"type":"VEC3"
		},
		{
			"bufferView":8,
			"componentType":5126,
			"count":56,
			"type":"VEC2"
		},
		{
			"bufferView":9,
			"componentType":5121,
			"count":56,
			"normalized":true,
			"type":"VEC4"
		},
		{
			"bufferView":10,
			"componentType":5123,
			"count":56,
			"normalized":true,
			"type":"VEC4"
		},
		{
			"bufferView":11,
			"componentType":5126,
			"count":56,
			"max":[
				0.6436954736709595,
				0.03750000149011612,
				0
			],
			"min":[
				0.16869549453258514,
				-0.03750000149011612,
				-0.27000001072883606
			],
			"type":"VEC3"
		},
		{
			"bufferView":12,
			"componentType":5126,
			"count":56,
			"type":"VEC3"
		},
		{
			"bufferView":13,
			"componentType":5126,
			"count":56,
			"type":"VEC2"
		},
		{
			"bufferView":14,
			"componentType":5121,
			"count":56,
			"normalized":true,
			"type":"VEC4"
		},
		{
			"bufferView":15,
			"componentType":5123,
			"count":56,
			"normalized":true,
			"type":"VEC4"
		},
		{
			"bufferView":16,
			"componentType":5126,
			"count":56,
			"max":[
				-0.1658353954553604,
				0.03750000149011612,
				0
			],
			"min":[
				-0.6408354043960571,
				-0.03750000149011612,
				-0.27000001072883606
			],
			"type":"VEC3"
		},
		{
			"bufferView":17,
			"componentType":5126,
			"count":56,
			"type":"VEC3"
		},
		{
			"bufferView":18,
			"componentType":5126,
			"count":56,
			"type":"VEC2"
		},
		{
			"bufferView":19,
			"componentType":5121,
			"count":56,
			"normalized":true,
			"type":"VEC4"
		},
		{
			"bufferView":20,
			"componentType":5123,
			"count":56,
			"normalized":true,
			"type":"VEC4"
		},
		{
			"bufferView":21,
			"componentType":5126,
			"count":56,
			"max":[
				0.23749999701976776,
				0.03750000149011612,
				0
			],
			"min":[
				-0.23749999701976776,
				-0.03750000149011612,
				-0.27000001072883606
			],
			"type":"VEC3"
		},
		{
			"bufferView":22,
			"componentType":5126,
			"count":56,
			"type":"VEC3"
		},
		{
			"bufferView":23,
			"componentType":5126,
			"count":56,
			"type":"VEC2"
		},
		{
			"bufferView":24,
			"componentType":5121,
			"count":56,
			"normalized":true,
			"type":"VEC4"
		},
		{
			"bufferView":25,
			"componentType":5123,
			"count":56,
			"normalized":true,
			"type":"VEC4"
		},
		{
			"bufferView":26,
			"componentType":5126,
			"count":56,
			"max":[
				-0.1658353954553604,
				0.03750000149011612,
				0
			],
			"min":[
				-0.6408354043960571,
				-0.03750000149011612,
				-0.27000001072883606
			],
			"type":"VEC3"
		},
		{
			"bufferView":27,
			"componentType":5126,
			"count":56,
			"type":"VEC3"
		},
		{
			"bufferView":28,
			"componentType":5126,
			"count":56,
			"type":"VEC2"
		},
		{
			"bufferView":29,
			"componentType":5121,
			"count":56,
			"normalized":true,
			"type":"VEC4"
		},
		{
			"bufferView":30,
			"componentType":5123,
			"count":56,
			"normalized":true,
			"type":"VEC4"
		},
		{
			"bufferView":31,
			"componentType":5126,
			"count":56,
			"max":[
				0.6436954736709595,
				0.03750000149011612,
				0
			],
			"min":[
				0.16869549453258514,
				-0.03750000149011612,
				-0.27000001072883606
			],
			"type":"VEC3"
		},
		{
			"bufferView":32,
			"componentType":5126,
			"count":56,
			"type":"VEC3"
		},
		{
			"bufferView":33,
			"componentType":5126,
			"count":56,
			"type":"VEC2"
		},
		{
			"bufferView":34,
			"componentType":5121,
			"count":56,
			"normalized":true,
			"type":"VEC4"
		},
		{
			"bufferView":35,
			"componentType":5123,
			"count":56,
			"normalized":true,
			"type":"VEC4"
		},
		{
			"bufferView":36,
			"componentType":5126,
			"count":56,
			"max":[
				1.0445556640625,
				0.03750000149011612,
				0
			],
			"min":[
				0.5695556402206421,
				-0.03750000149011612,
				-0.27000001072883606
			],
			"type":"VEC3"
		},
		{
			"bufferView":37,
			"componentType":5126,
			"count":56,
			"type":"VEC3"
		},
		{
			"bufferView":38,
			"componentType":5126,
			"count":56,
			"type":"VEC2"
		},
		{
			"bufferView":39,
			"componentType":5121,
			"count":56,
			"normalized":true,
			"type":"VEC4"
		},
		{
			"bufferView":40,
			"componentType":5123,
			"count":56,
			"normalized":true,
			"type":"VEC4"
		},
		{
			"bufferView":41,
			"componentType":5126,
			"count":56,
			"max":[
				0.23749999701976776,
				0.03750000149011612,
				0
			],
			"min":[
				-0.23749999701976776,
				-0.03750000149011612,
				-0.27000001072883606
			],
			"type":"VEC3"
		},
		{
			"bufferView":42,
			"componentType":5126,
			"count":56,
			"type":"VEC3"
		},
		{
			"bufferView":43,
			"componentType":5126,
			"count":56,
			"type":"VEC2"
		},
		{
			"bufferView":44,
			"componentType":5121,
			"count":56,
			"normalized":true,
			"type":"VEC4"
		},
		{
			"bufferView":45,
			"componentType":5123,
			"count":56,
			"normalized":true,
			"type":"VEC4"
		},
		{
			"bufferView":46,
			"componentType":5126,
			"count":56,
			"max":[
				0.6425343751907349,
				0.03750000149011612,
				0
			],
			"min":[
				0.16753436625003815,
				-0.03750000149011612,
				-0.27000001072883606
			],
			"type":"VEC3"
		},
		{
			"bufferView":47,
			"componentType":5126,
			"count":56,
			"type":"VEC3"
		},
		{
			"bufferView":48,
			"componentType":5126,
			"count":56,
			"type":"VEC2"
		},
		{
			"bufferView":49,
			"componentType":5121,
			"count":56,
			"normalized":true,
			"type":"VEC4"
		},
		{
			"bufferView":50,
			"componentType":5123,
			"count":56,
			"normalized":true,
			"type":"VEC4"
		},
		{
			"bufferView":51,
			"componentType":5126,
			"count":56,
			"max":[
				1.0468436479568481,
				0.03750000149011612,
				0
			],
			"min":[
				0.571843683719635,
				-0.03750000149011612,
				-0.27000001072883606
			],
			"type":"VEC3"
		},
		{
			"bufferView":52,
			"componentType":5126,
			"count":56,
			"type":"VEC3"
		},
		{
			"bufferView":53,
			"componentType":5126,
			"count":56,
			"type":"VEC2"
		},
		{
			"bufferView":54,
			"componentType":5121,
			"count":56,
			"normalized":true,
			"type":"VEC4"
		},
		{
			"bufferView":55,
			"componentType":5123,
			"count":56,
			"normalized":true,
			"type":"VEC4"
		},
		{
			"bufferView":56,
			"componentType":5126,
			"count":56,
			"max":[
				-0.16587869822978973,
				0.03750000149011612,
				0
			],
			"min":[
				-0.6408786773681641,
				-0.03750000149011612,
				-0.27000001072883606
			],
			"type":"VEC3"
		},
		{
			"bufferView":57,
			"componentType":5126,
			"count":56,
			"type":"VEC3"
		},
		{
			"bufferView":58,
			"componentType":5126,
			"count":56,
			"type":"VEC2"
		},
		{
			"bufferView":59,
			"componentType":5121,
			"count":56,
			"normalized":true,
			"type":"VEC4"
		},
		{
			"bufferView":60,
			"componentType":5123,
			"count":56,
			"normalized":true,
			"type":"VEC4"
		},
		{
			"bufferView":61,
			"componentType":5126,
			"count":56,
			"max":[
				-0.570188045501709,
				0.03750000149011612,
				0
			],
			"min":[
				-1.045188069343567,
				-0.03750000149011612,
				-0.27000001072883606
			],
			"type":"VEC3"
		},
		{
			"bufferView":62,
			"componentType":5126,
			"count":56,
			"type":"VEC3"
		},
		{
			"bufferView":63,
			"componentType":5126,
			"count":56,
			"type":"VEC2"
		},
		{
			"bufferView":64,
			"componentType":5121,
			"count":56,
			"normalized":true,
			"type":"VEC4"
		},
		{
			"bufferView":65,
			"componentType":5123,
			"count":56,
			"normalized":true,
			"type":"VEC4"
		},
		{
			"bufferView":66,
			"componentType":5126,
			"count":797,
			"max":[
				0.7250000238418579,
				0.5889999866485596,
				0
			],
			"min":[
				-0.7250000238418579,
				-0.5889999866485596,
				-0.76820969581604
			],
			"type":"VEC3"
		},
		{
			"bufferView":67,
			"componentType":5126,
			"count":797,
			"type":"VEC3"
		},
		{
			"bufferView":68,
			"componentType":5126,
			"count":797,
			"type":"VEC2"
		},
		{
			"bufferView":69,
			"componentType":5121,
			"count":797,
			"normalized":true,
			"type":"VEC4"
		},
		{
			"bufferView":70,
			"componentType":5123,
			"count":797,
			"normalized":true,
			"type":"VEC4"
		},
		{
			"bufferView":71,
			"componentType":5123,
			"count":3201,
			"type":"SCALAR"
		}
	],
	"bufferViews":[
		{
			"buffer":0,
			"byteLength":672,
			"byteOffset":0,
			"target":34962
		},
		{
			"buffer":0,
			"byteLength":672,
			"byteOffset":672,
			"target":34962
		},
		{
			"buffer":0,
			"byteLength":448,
			"byteOffset":1344,
			"target":34962
		},
		{
			"buffer":0,
			"byteLength":224,
			"byteOffset":1792,
			"target":34962
		},
		{
			"buffer":0,
			"byteLength":448,
			"byteOffset":2016,
			"target":34962
		},
		{
			"buffer":0,
			"byteLength":528,
			"byteOffset":2464,
			"target":34963
		},
		{
			"buffer":0,
			"byteLength":672,
			"byteOffset":2992,
			"target":34962
		},
		{
			"buffer":0,
			"byteLength":672,
			"byteOffset":3664,
			"target":34962
		},
		{
			"buffer":0,
			"byteLength":448,
			"byteOffset":4336,
			"target":34962
		},
		{
			"buffer":0,
			"byteLength":224,
			"byteOffset":4784,
			"target":34962
		},
		{
			"buffer":0,
			"byteLength":448,
			"byteOffset":5008,
			"target":34962
		},
		{
			"buffer":0,
			"byteLength":672,
			"byteOffset":5456,
			"target":34962
		},
		{
			"buffer":0,
			"byteLength":672,
			"byteOffset":6128,
			"target":34962
		},
		{
			"buffer":0,
			"byteLength":448,
			"byteOffset":6800,
			"target":34962
		},
		{
			"buffer":0,
			"byteLength":224,
			"byteOffset":7248,
			"target":34962
		},
		{
			"buffer":0,
			"byteLength":448,
			"byteOffset":7472,
			"target":34962
		},
		{
			"buffer":0,
			"byteLength":672,
			"byteOffset":7920,
			"target":34962
		},
		{
			"buffer":0,
			"byteLength":672,
			"byteOffset":8592,
			"target":34962
		},
		{
			"buffer":0,
			"byteLength":448,
			"byteOffset":9264,
			"target":34962
		},
		{
			"buffer":0,
			"byteLength":224,
			"byteOffset":9712,
			"target":34962
		},
		{
			"buffer":0,
			"byteLength":448,
			"byteOffset":9936,
			"target":34962
		},
		{
			"buffer":0,
			"byteLength":672,
			"byteOffset":10384,
			"target":34962
		},
		{
			"buffer":0,
			"byteLength":672,
			"byteOffset":11056,
			"target":34962
		},
		{
			"buffer":0,
			"byteLength":448,
			"byteOffset":11728,
			"target":34962
		},
		{
			"buffer":0,
			"byteLength":224,
			"byteOffset":12176,
			"target":34962
		},
		{
			"buffer":0,
			"byteLength":448,
			"byteOffset":12400,
			"target":34962
		},
		{
			"buffer":0,
			"byteLength":672,
			"byteOffset":12848,
			"target":34962
		},
		{
			"buffer":0,
			"byteLength":672,
			"byteOffset":13520,
			"target":34962
		},
		{
			"buffer":0,
			"byteLength":448,
			"byteOffset":14192,
			"target":34962
		},
		{
			"buffer":0,
			"byteLength":224,
			"byteOffset":14640,
			"target":34962
		},
		{
			"buffer":0,
			"byteLength":448,
			"byteOffset":14864,
			"target":34962
		},
		{
			"buffer":0,
			"byteLength":672,
			"byteOffset":15312,
			"target":34962
		},
		{
			"buffer":0,
			"byteLength":672,
			"byteOffset":15984,
			"target":34962
		},
		{
			"buffer":0,
			"byteLength":448,
			"byteOffset":16656,
			"target":34962
		},
		{
			"buffer":0,
			"byteLength":224,
			"byteOffset":17104,
			"target":34962
		},
		{
			"buffer":0,
			"byteLength":448,
			"byteOffset":17328,
			"target":34962
		},
		{
			"buffer":0,
			"byteLength":672,
			"byteOffset":17776,
			"target":34962
		},
		{
			"buffer":0,
			"byteLength":672,
			"byteOffset":18448,
			"target":34962
		},
		{
			"buffer":0,
			"byteLength":448,
			"byteOffset":19120,
			"target":34962
		},
		{
			"buffer":0,
			"byteLength":224,
			"byteOffset":19568,
			"target":34962
		},
		{
			"buffer":0,
			"byteLength":448,
			"byteOffset":19792,
			"target":34962
		},
		{
			"buffer":0,
			"byteLength":672,
			"byteOffset":20240,
			"target":34962
		},
		{
			"buffer":0,
			"byteLength":672,
			"byteOffset":20912,
			"target":34962
		},
		{
			"buffer":0,
			"byteLength":448,
			"byteOffset":21584,
			"target":34962
		},
		{
			"buffer":0,
			"byteLength":224,
			"byteOffset":22032,
			"target":34962
		},
		{
			"buffer":0,
			"byteLength":448,
			"byteOffset":22256,
			"target":34962
		},
		{
			"buffer":0,
			"byteLength":672,
			"byteOffset":22704,
			"target":34962
		},
		{
			"buffer":0,
			"byteLength":672,
			"byteOffset":23376,
			"target":34962
		},
		{
			"buffer":0,
			"byteLength":448,
			"byteOffset":24048,
			"target":34962
		},
		{
			"buffer":0,
			"byteLength":224,
			"byteOffset":24496,
			"target":34962
		},
		{
			"buffer":0,
			"byteLength":448,
			"byteOffset":24720,
			"target":34962
		},
		{
			"buffer":0,
			"byteLength":672,
			"byteOffset":25168,
			"target":34962
		},
		{
			"buffer":0,
			"byteLength":672,
			"byteOffset":25840,
			"target":34962
		},
		{
			"buffer":0,
			"byteLength":448,
			"byteOffset":26512,
			"target":34962
		},
		{
			"buffer":0,
			"byteLength":224,
			"byteOffset":26960,
			"target":34962
		},
		{
			"buffer":0,
			"byteLength":448,
			"byteOffset":27184,
			"target":34962
		},
		{
			"buffer":0,
			"byteLength":672,
			"byteOffset":27632,
			"target":34962
		},
		{
			"buffer":0,
			"byteLength":672,
			"byteOffset":28304,
			"target":34962
		},
		{
			"buffer":0,
			"byteLength":448,
			"byteOffset":28976,
			"target":34962
		},
		{
			"buffer":0,
			"byteLength":224,
			"byteOffset":29424,
			"target":34962
		},
		{
			"buffer":0,
			"byteLength":448,
			"byteOffset":29648,
			"target":34962
		},
		{
			"buffer":0,
			"byteLength":672,
			"byteOffset":30096,
			"target":34962
		},
		{
			"buffer":0,
			"byteLength":672,
			"byteOffset":30768,
			"target":34962
		},
		{
			"buffer":0,
			"byteLength":448,
			"byteOffset":31440,
			"target":34962
		},
		{
			"buffer":0,
			"byteLength":224,
			"byteOffset":31888,
			"target":34962
		},
		{
			"buffer":0,
			"byteLength":448,
			"byteOffset":32112,
			"target":34962
		},
		{
			"buffer":0,
			"byteLength":9564,
			"byteOffset":32560,
			"target":34962
		},
		{
			"buffer":0,
			"byteLength":9564,
			"byteOffset":42124,
			"target":34962
		},
		{
			"buffer":0,
			"byteLength":6376,
			"byteOffset":51688,
			"target":34962
		},
		{
			"buffer":0,
			"byteLength":3188,
			"byteOffset":58064,
			"target":34962
		},
		{
			"buffer":0,
			"byteLength":6376,
			"byteOffset":61252,
			"target":34962
		},
		{
			"buffer":0,
			"byteLength":6402,
			"byteOffset":67628,
			"target":34963
		}
	],
	"samplers":[
		{
			"magFilter":9729,
			"minFilter":9987
		}
	],
	"buffers":[
		{
			"byteLength":74032,
			"uri":"House2.bin"
		}
	]
}
